<svg xmlns="http://www.w3.org/2000/svg" viewBox="0 0 256 256" enable-background="new 0 0 256 256"><path fill="#BB9D6E" d="M46.6 242.5c2.8.3 5.4-1.7 5.9-4.4-.3 3 2 5.7 5 6 3 .3 5.7-2 6-5 .3-3.2 1.1-11.5 1.4-14.5h.2c19.7 1.6 41.9-13 46.2-44.1 1.9-13.5-1.6-26.8-9.7-37.7-5.5-7.4-12.9-12.9-21.2-16.4.6-1.2 1.1-2.5 1.3-3.9.5-3.6-.4-7.1-2.6-10-2.2-2.9-5.3-4.7-8.9-5.2-6.6-.9-13 3.2-14.8 9.6-.2.6-.3 1.2-.4 1.8-.2 1.4-.1 2.8.1 4.1-1.4.2-2.9.4-4.3.7l-3.5-9.6c3.5-2.5 6.2-6.1 7.5-10.4.6-2.1.8-4.3.7-6.5l-1.5-24.4c-.1-2.3-.7-4.5-1.6-6.5l13-10.8.9.5c4.6 2.3 9.8 2.6 14.7 1l23.1-7.9c6-2 10.6-6.9 12.3-13v-.1l11.5-.2c1.9 4.7 5.6 8.6 10.6 10.7l22.6 9.3c4.7 1.9 9.8 1.9 14.5.1l5.1 6.4c-1.1 1.6-1.9 3.4-2.4 5.3-.7 2.6-.9 5.2-.6 7.9l3.3 24.2c1 7.2 5.9 13 12.3 15.4l-.3 8c-17 .6-33.3 9.5-42.4 25.2-2.9 5-5 9.9-6.3 14.7-6.1 21.2 2 39.7 15.4 48.6l.2.1c-1.6 2.6-6 9.6-7.8 12.4-1.6 2.6-.9 6 1.7 7.6 2.6 1.6 6 .9 7.6-1.7-.2.4-.4.7-.5 1.1-.7 2.3.2 4.8 2.4 6.2 2.6 1.6 6 .9 7.6-1.7.7-1.1 6.1-9.7 8-12.8.1 0 .2 0 .2.1 17.6 8.9 43.7 3.7 59.4-23.5 11.9-20.4 7.8-45.8-8.3-61.7 1-.9 1.9-1.9 2.7-3.2.6-1 1-2 1.3-3.1 1.7-5.9-.9-12.2-6.2-15.3-6.4-3.7-14.6-1.5-18.4 4.9-.6 1-1 2-1.3 3.1l-.2.8c-1.4-.4-2.8-.7-4.2-1l.3-8.1c6.8-1.5 12.4-6.7 14.3-13.5.7-2.6.9-5.2.6-7.9l-3.1-24.1c-1.4-10.5-11.2-17.9-21.7-16.5-1.8.2-3.4.7-5 1.4l-4.9-6.2c.8-1.1 1.5-2.4 2-3.7 4.1-10-.7-21.2-10.5-25.2l-22.6-9.3c-4.8-2-10-2-14.8 0-4.8 2-8.5 5.7-10.4 10.5-.3.7-.5 1.4-.7 2.1l-.3 1.4-10.7.2c0-.1-.1-.2-.1-.4-1.7-4.9-5.1-8.8-9.7-11.1-4.6-2.3-9.8-2.6-14.7-1l-23.1 7.9c-6 2-10.6 6.9-12.3 13-1.1 3.8-1 7.8.3 11.5.3.9.7 1.8 1.1 2.6l-12.7 10.4c-3.5-2.3-7.6-3.4-11.8-3.1-8.1.5-15.1 6.1-17.3 14-.6 2.1-.8 4.3-.7 6.5l1.6 24.4c.7 10.4 9.5 18.3 19.9 18l3.4 9.4c-13.5 6-24.1 17.7-28.3 32.5-.6 2.2-1.1 4.5-1.5 6.9-4.4 31.1 12.9 51.3 32.2 55.2.1 0 .2 0 .2.1-.4 3.6-1.4 13.8-1.5 15-.1 3 2.1 5.6 5.2 5.9zm182.5-48.8c-9.3 16.1-27.8 27.9-44.9 19.2-5.3-2.7-11.5-1.2-14.2 3.4 2.6-4.7.8-10.8-4.1-14-16-10.6-15-32.4-5.6-48.5 11-19 35.5-25.5 54.5-14.5 18.9 11 25.4 35.4 14.3 54.4zm-9.8-67.2c.7-1.1 2.1-1.5 3.3-.9 1 .6 1.4 1.7 1.1 2.7-.1.2-.1.4-.2.5-.7 1.1-2.1 1.5-3.3.9-1.1-.6-1.5-2.1-.9-3.2zm-14.3-54.9l3.3 24.2c.2 1.1.1 2.3-.2 3.4-.5 1.9-1.7 3.5-3.3 4.6l.3-7.8c.1-3-2.3-5.6-5.3-5.7-2.6-.1-4.8 1.6-5.5 4-.1.4-.2.9-.2 1.3l-.2 6.6c-.9-1.1-1.6-2.5-1.8-4.1l-3.3-24.2c-.1-.6-.1-1.2-.1-1.7l3.8 4.8c1.9 2.4 5.4 2.8 7.7.9 2.4-1.9 2.8-5.4.9-7.7l-4.4-5.6c4.1-.2 7.8 2.8 8.3 7zm-62.3-50.7c2-.8 4.3-.9 6.3 0l22.6 9.3c3.6 1.5 5.6 5.2 5 8.9l-2.7-3.4c-1.9-2.4-5.4-2.8-7.7-.9-.9.7-1.6 1.7-1.9 2.8-.5 1.6-.2 3.5 1 4.9l2.8 3.5c-.9 0-1.8-.2-2.7-.6l-22.6-9.3-1.4-.7 4.2-.1c3-.1 5.5-2.6 5.4-5.6-.1-3-2.6-5.5-5.6-5.4l-6.5.1c.8-1.6 2.1-2.8 3.8-3.5zm-70.5 9.9l23.1-7.9c2.1-.7 4.3-.6 6.3.4.9.4 1.7 1.1 2.4 1.8l-4.4.1c-2.5 0-4.5 1.7-5.2 4-.1.5-.2 1.1-.2 1.6.1 3 2.6 5.5 5.6 5.4l4.3-.1c-.9 1.1-2.1 1.9-3.5 2.4l-23.1 7.9c-.5.2-1.1.3-1.6.4l4-3.3c2.4-1.9 2.7-5.4.7-7.8-1.9-2.4-5.4-2.7-7.8-.8l-6.1 5c-.5-3.8 1.8-7.8 5.5-9.1zm-44.1 68l-1.6-24.4c-.3-4.5 3.3-8.5 7.7-8.8h1.4l-3.7 3.1c-.9.7-1.5 1.7-1.8 2.7-.5 1.7-.2 3.6 1 5 1.9 2.4 5.4 2.7 7.8.8l4.1-3.4 1.6 23.8c.1 1 0 1.9-.3 2.8-.2.8-.6 1.5-1 2.2l-2-5.4c-1-2.9-4.2-4.3-7.1-3.3-1.7.6-2.9 2-3.4 3.7-.3 1.1-.3 2.3.1 3.4l1.6 4.4c-2.4-1.2-4.2-3.6-4.4-6.6zm38.4 23.2c-.2-.3-.6-.9-.5-1.8.2-1.3 1.4-2.2 2.7-2 .9.1 1.4.6 1.6.9.2.3.6.9.5 1.8 0 .1 0 .2-.1.3-.3 1.1-1.5 1.9-2.6 1.7-.9-.1-1.4-.6-1.6-.9zm-45 45.8c3.1-21.8 23.3-36.9 45-33.9 10.5 1.5 19.9 7 26.3 15.5 6.4 8.5 9.1 19 7.6 29.5-3.4 24.4-19.9 35.9-34.4 34.7-5.8-.5-11 3.2-11.9 8.4.6-5.3-3.3-10.2-9.1-11.4-18.9-3.8-26.1-24.4-23.5-42.8z"/></svg>