<svg xmlns="http://www.w3.org/2000/svg" viewBox="0 0 256 149" enable-background="new 0 0 256 149"><path fill="#BB9D6E" d="M187.8 86.2c11.2-3.3 22.7-7.9 33.8-13.9 17.8-10.3 26.9.4 20.3 16.7-5.6 15.4-35.6 44-61.6 50.5-10-7.1-29.6-11.9-52.2-12-22.6.1-42.3 4.9-52.2 12-26.1-6.5-56-35.2-61.6-50.5-6.6-16.3 2.5-27 20.3-16.7 11.1 6.1 22.7 10.6 33.8 14 23.9 7.2 45.8 9 57.3 9h6.3c11.2-.3 32.6-2.2 55.8-9.1zm-32.2-72.4c9.3 4.7 24.4 48.4 30.3 66.4-22.5 6.5-43 8.3-54.1 8.4h-6.3c-11.2 0-32.2-1.7-55.3-8.4 5.9-17.9 21-61.7 30.3-66.4 10.7-5.3 19.8 3.5 27.2 4.4h-1.4c.6.1 1.2.1 1.8 0 .6.1 1.2 0 1.8 0h-1.4c7.2-.9 16.4-9.7 27.1-4.4zm-3.7 34c0-1.9-1.6-3.5-3.5-3.5-1.8 0-3.3 1.3-3.5 3l-10.8-1.6-4.8-9.7c1.3-.5 2.2-1.8 2.2-3.3 0-1.9-1.6-3.5-3.5-3.5s-3.5 1.6-3.5 3.5c0 1.5.9 2.8 2.2 3.3l-4.8 9.7-10.9 1.6c-.2-1.7-1.7-3-3.5-3-1.9 0-3.5 1.6-3.5 3.5s1.6 3.5 3.5 3.5c1.2 0 2.3-.6 2.9-1.5l7.7 7.5-1.9 11.3c-.4-.2-.9-.3-1.4-.3-1.9 0-3.5 1.6-3.5 3.5s1.6 3.5 3.5 3.5 3.5-1.6 3.5-3.5c0-.7-.2-1.4-.6-2l10.3-5.4 10.2 5.4c-.4.6-.6 1.2-.6 2 0 1.9 1.6 3.5 3.5 3.5s3.5-1.6 3.5-3.5-1.6-3.5-3.5-3.5c-.5 0-.9.1-1.4.3l-1.9-11.3 7.7-7.5c.6.9 1.7 1.5 2.9 1.5 2 0 3.5-1.6 3.5-3.5z"/></svg>