<svg xmlns="http://www.w3.org/2000/svg" viewBox="0 0 256 256" enable-background="new 0 0 256 256"><path fill="#87724F" d="M226.4 175.9c-1.7 0-3.2.6-4.6 1.4l-28.9-48.8 28.9-48.7c1.4.8 2.9 1.4 4.6 1.4 5.1 0 9.2-4.1 9.2-9.2s-4.1-9.2-9.2-9.2-9.2 4.1-9.2 9.2v.1l-56.6.7-27.7-49.4c2.8-1.6 4.8-4.5 4.8-7.9 0-5.1-4.1-9.2-9.2-9.2s-9.2 4.1-9.2 9.2c0 3.4 2 6.3 4.8 7.9l-27.8 49.5-56.6-.7v-.1c0-5.1-4.1-9.2-9.2-9.2s-9.2 4.1-9.2 9.2 4.1 9.2 9.2 9.2c1.7 0 3.2-.6 4.6-1.4l28.9 48.7-28.9 48.7c-1.4-.8-2.9-1.4-4.6-1.4-5.1 0-9.2 4.1-9.2 9.2s4.1 9.2 9.2 9.2 9.2-4.1 9.2-9.2v-.1l56.6-.7 27.7 49.4c-2.8 1.6-4.8 4.5-4.8 7.9 0 5.1 4.1 9.2 9.2 9.2s9.2-4.1 9.2-9.2c0-3.4-2-6.3-4.8-7.9l27.7-49.4 56.6.7v.1c0 5.1 4.1 9.2 9.2 9.2s9.2-4.1 9.2-9.2c.1-5.1-4-9.2-9.1-9.2z"/></svg>